<?xml version="1.0" encoding="utf-8"?>
<svg version="1.2" baseProfile="tiny" xmlns="http://www.w3.org/2000/svg" xmlns:xlink="http://www.w3.org/1999/xlink"
	 x="0px" y="0px" width="822px" height="567px" viewBox="0 0 822 567">
		 <!--abc-color.com-->
			<title>Sunu</title>
			<desc>Vector picture sunu</desc>
<path fill="#F7931E" d="M396.1,481.6c-0.1-9.6-0.3-19.1-0.4-28.1c-0.1-4.5-0.1-8.8-0.2-12.9c-0.1-4.1-0.2-8.1-0.2-11.7
		c-0.3-14.3-0.5-24-0.5-24h-0.4c0,0-0.2,9.6-0.5,24c-0.1,3.6-0.2,7.5-0.2,11.6c-0.1,4.1-0.1,8.5-0.2,12.9c-0.1,9-0.3,18.5-0.4,28.1
		c-0.1,4.8-0.2,9.6-0.3,14.3c-0.1,4.7-0.2,9.3-0.2,13.8c0,4.5,0,8.8,0.1,12.9c0,2.1,0.1,4,0.1,6c0.1,1.9,0.1,3.8,0.2,5.6
		c0.1,3.6,0.3,6.9,0.4,9.8c0.2,2.9,0.3,5.4,0.5,7.5c0.2,2.1,0.2,3.7,0.4,4.9c0.1,1.1,0.2,1.7,0.2,1.7h0.4c0,0,0.1-0.6,0.2-1.7
		c0.1-1.1,0.2-2.8,0.4-4.9c0.2-2.1,0.3-4.6,0.5-7.5c0.1-2.9,0.3-6.2,0.4-9.8c0.1-1.8,0.1-3.7,0.2-5.6c0-1.9,0.1-3.9,0.1-6
		c0.1-4.1,0.1-8.4,0.1-12.9c-0.1-4.5-0.1-9.1-0.2-13.8C396.3,491.1,396.2,486.4,396.1,481.6z"/>
	<path fill="#F7931E" d="M429.4,549.2c-0.1-2.1-0.3-4.6-0.5-7.5c-0.2-2.9-0.5-6.2-0.8-9.8c-0.2-1.8-0.3-3.6-0.5-5.6
		c-0.2-1.9-0.4-3.9-0.6-5.9c-0.4-4.1-0.9-8.4-1.5-12.8c-0.6-4.4-1.2-9-1.9-13.7c-0.7-4.7-1.4-9.4-2.1-14.1c-1.3-9.5-2.7-18.9-4-27.8
		c-0.6-4.4-1.3-8.7-1.8-12.8c-0.6-4.1-1.2-7.9-1.7-11.4c-2.1-14.2-3.5-23.6-3.5-23.6l-0.4,0.1c0,0,1,9.5,2.5,23.8
		c0.4,3.6,0.8,7.4,1.2,11.5c0.4,4.1,0.9,8.4,1.4,12.8c1,8.9,2,18.4,3.1,27.9c0.5,4.7,1,9.5,1.5,14.2c0.5,4.7,1,9.3,1.5,13.7
		c0.6,4.4,1.1,8.7,1.8,12.8c0.3,2,0.6,4,0.9,5.9c0.3,1.9,0.6,3.8,0.9,5.5c0.6,3.5,1.1,6.8,1.7,9.6c0.5,2.9,1,5.4,1.4,7.4
		c0.4,2.1,0.7,3.7,1,4.8c0.2,1.1,0.4,1.7,0.4,1.7l0.4-0.1c0,0,0-0.6-0.1-1.7C429.6,553,429.5,551.3,429.4,549.2z"/>
	<path fill="#F7931E" d="M462.4,542.9c-0.4-2.1-0.8-4.6-1.4-7.4c-0.6-2.9-1.2-6.1-2-9.6c-0.4-1.8-0.8-3.6-1.2-5.5
		c-0.4-1.9-0.9-3.8-1.3-5.8c-0.9-4-2-8.2-3.1-12.5c-1.2-4.3-2.3-8.8-3.6-13.3c-1.3-4.5-2.5-9.1-3.8-13.7c-2.5-9.2-5-18.4-7.4-27.1
		c-1.2-4.3-2.3-8.5-3.4-12.4c-1.1-4-2.1-7.7-3.1-11.1c-3.8-13.8-6.4-23-6.4-23l-0.4,0.1c0,0,2.2,9.3,5.4,23.3
		c0.8,3.5,1.7,7.3,2.6,11.3c1,4,2,8.2,3,12.6c2.1,8.7,4.3,18,6.5,27.3c1.1,4.6,2.2,9.3,3.3,13.9c1,4.6,2.2,9.1,3.2,13.4
		c1.1,4.3,2.2,8.5,3.4,12.5c0.6,2,1.1,3.9,1.6,5.8c0.5,1.9,1.1,3.6,1.6,5.4c1,3.4,2,6.6,2.8,9.4c0.9,2.8,1.7,5.2,2.3,7.2
		c0.7,2,1.2,3.6,1.5,4.6c0.4,1.1,0.6,1.6,0.6,1.6l0.4-0.1c0,0-0.1-0.6-0.3-1.7C463.1,546.6,462.8,544.9,462.4,542.9z"/>
	<path fill="#F7931E" d="M494.5,532.3c-0.6-2-1.4-4.4-2.3-7.2c-0.9-2.8-2-5.9-3.2-9.2c-0.6-1.7-1.2-3.4-1.9-5.3
		c-0.7-1.8-1.4-3.7-2.1-5.6c-1.4-3.9-3-7.9-4.6-12.1c-1.7-4.1-3.4-8.4-5.3-12.8c-1.8-4.3-3.7-8.7-5.5-13.1
		c-3.7-8.8-7.3-17.6-10.7-25.9c-1.7-4.1-3.4-8.1-5-11.9c-1.6-3.8-3.1-7.4-4.5-10.7c-5.6-13.2-9.3-22-9.3-22l-0.4,0.1
		c0,0,3.3,8.9,8.3,22.4c1.2,3.4,2.6,7,4,10.8c1.4,3.8,3,7.9,4.5,12.1c3.2,8.4,6.5,17.3,9.9,26.2c1.7,4.5,3.3,8.9,5,13.3
		c1.6,4.4,3.3,8.7,4.9,12.9c1.7,4.2,3.3,8.2,4.9,11.9c0.8,1.9,1.6,3.7,2.3,5.5c0.8,1.8,1.5,3.5,2.2,5.1c1.4,3.3,2.8,6.3,4,8.9
		c1.2,2.6,2.3,4.9,3.2,6.8c0.9,1.9,1.6,3.4,2.1,4.4c0.5,1,0.8,1.5,0.8,1.5l0.4-0.1c0,0-0.2-0.6-0.5-1.7
		C495.6,535.9,495.1,534.3,494.5,532.3z"/>
	<path fill="#F7931E" d="M525,517.9c-0.9-1.9-2-4.2-3.2-6.8c-1.3-2.6-2.7-5.6-4.3-8.8c-0.8-1.6-1.7-3.3-2.5-5
		c-0.9-1.7-1.8-3.5-2.8-5.3c-1.9-3.6-3.9-7.5-6.1-11.4c-2.2-3.9-4.5-7.9-6.8-12c-2.3-4.1-4.7-8.2-7.1-12.4
		c-4.7-8.3-9.5-16.6-13.9-24.4c-2.2-3.9-4.4-7.6-6.4-11.2c-2.1-3.6-4-6.9-5.8-10c-7.2-12.4-11.9-20.7-11.9-20.7l-0.3,0.2
		c0,0,4.4,8.5,11.1,21.2c1.7,3.2,3.5,6.6,5.4,10.3c1.9,3.6,3.9,7.5,6,11.4c4.2,7.9,8.7,16.4,13.1,24.8c2.2,4.2,4.4,8.5,6.6,12.6
		c2.2,4.2,4.4,8.2,6.5,12.2c2.2,3.9,4.3,7.7,6.4,11.2c1,1.8,2,3.5,3,5.2c1,1.7,1.9,3.3,2.9,4.8c1.8,3.1,3.6,5.9,5.1,8.4
		c1.5,2.5,2.9,4.6,4,6.4c1.1,1.8,2,3.1,2.6,4.1c0.6,0.9,1,1.4,1,1.4l0.3-0.2c0,0-0.2-0.5-0.7-1.6C526.6,521.3,525.9,519.8,525,517.9
		z"/>
	<path fill="#F7931E" d="M553.4,499.8c-1.1-1.8-2.5-3.9-4.1-6.4c-1.6-2.4-3.4-5.2-5.4-8.2c-1-1.5-2-3-3.1-4.6
		c-1.1-1.6-2.2-3.2-3.4-4.9c-2.3-3.4-4.8-6.9-7.5-10.5c-2.7-3.6-5.4-7.3-8.3-11c-2.8-3.7-5.7-7.6-8.6-11.4
		c-5.7-7.6-11.5-15.3-16.8-22.4c-2.7-3.6-5.3-7-7.8-10.3c-2.5-3.3-4.8-6.4-7-9.2c-8.7-11.4-14.4-19-14.4-19l-0.3,0.2
		c0,0,5.5,7.8,13.6,19.6c2,2.9,4.3,6.1,6.6,9.5c2.4,3.4,4.8,6.9,7.4,10.6c5.1,7.3,10.6,15.1,16.1,23c2.7,3.9,5.5,7.8,8.2,11.7
		c2.7,3.9,5.4,7.6,7.9,11.3c2.6,3.6,5.2,7.1,7.7,10.4c1.2,1.6,2.5,3.2,3.6,4.8c1.2,1.5,2.3,3,3.4,4.4c2.2,2.8,4.3,5.4,6.1,7.7
		c1.8,2.3,3.5,4.2,4.8,5.8c1.4,1.6,2.4,2.9,3.1,3.7c0.7,0.8,1.1,1.3,1.1,1.3l0.3-0.2c0,0-0.3-0.5-0.9-1.5
		C555.4,502.9,554.5,501.6,553.4,499.8z"/>
	<path fill="#F7931E" d="M579.3,478.2c-1.3-1.6-2.9-3.6-4.8-5.8c-1.9-2.2-4-4.7-6.4-7.4c-1.2-1.3-2.4-2.8-3.7-4.2
		c-1.3-1.4-2.6-2.9-4-4.5c-2.7-3.1-5.7-6.2-8.7-9.5c-3.1-3.2-6.3-6.6-9.6-9.9c-3.3-3.4-6.6-6.8-10-10.2
		c-6.6-6.9-13.3-13.7-19.5-20.1c-3.1-3.2-6.1-6.3-9-9.3c-2.9-2.9-5.6-5.7-8.1-8.3c-10-10.2-16.7-17.1-16.7-17.1l-0.3,0.3
		c0,0,6.4,7.1,16,17.7c2.4,2.7,5,5.5,7.7,8.6c2.8,3,5.7,6.2,8.7,9.6c6,6.6,12.5,13.7,18.9,20.8c3.2,3.5,6.4,7.1,9.6,10.6
		c3.1,3.5,6.3,6.9,9.3,10.2c3.1,3.3,6.1,6.4,8.9,9.3c1.4,1.5,2.8,2.9,4.2,4.3c1.4,1.4,2.7,2.7,4,3.9c2.5,2.5,4.9,4.8,7,6.8
		c2.1,2,4,3.8,5.5,5.2c1.5,1.4,2.7,2.5,3.6,3.3c0.8,0.7,1.3,1.1,1.3,1.1l0.3-0.3c0,0-0.4-0.5-1.1-1.4
		C581.7,481.1,580.6,479.8,579.3,478.2z"/>
	<path fill="#F7931E" d="M602.3,453.5c-1.5-1.5-3.4-3.2-5.5-5.2c-2.1-2-4.6-4.2-7.3-6.6c-1.3-1.2-2.7-2.4-4.2-3.7
		c-1.5-1.3-3-2.6-4.5-3.9c-3.1-2.7-6.4-5.5-9.8-8.3c-3.5-2.8-7.1-5.7-10.8-8.6c-3.7-2.9-7.4-5.9-11.2-8.9
		c-7.5-6-14.9-11.9-21.9-17.5c-3.5-2.8-6.9-5.5-10.1-8.1c-3.2-2.5-6.3-5-9.1-7.2c-11.2-8.9-18.7-14.8-18.7-14.8l-0.3,0.3
		c0,0,7.2,6.2,18.1,15.6c2.7,2.3,5.6,4.9,8.8,7.6c3.1,2.7,6.4,5.5,9.8,8.4c6.8,5.8,14.1,12,21.3,18.2c3.6,3.1,7.2,6.2,10.8,9.3
		c3.5,3.1,7.1,6.1,10.5,9c3.5,2.8,6.8,5.6,10,8.1c1.6,1.3,3.2,2.5,4.7,3.7c1.5,1.2,3,2.3,4.4,3.4c2.8,2.2,5.5,4.2,7.8,5.9
		c2.3,1.7,4.4,3.2,6.1,4.4c1.7,1.2,3,2.2,4,2.8c0.9,0.6,1.4,1,1.4,1l0.3-0.3c0,0-0.4-0.4-1.2-1.2C605,456.1,603.8,455,602.3,453.5z"
		/>
	<path fill="#F7931E" d="M622,426.2c-1.7-1.3-3.7-2.7-6.1-4.4c-2.4-1.7-5.1-3.6-8-5.6c-1.5-1-3-2.1-4.6-3.2c-1.6-1.1-3.3-2.2-5-3.3
		c-3.4-2.3-7-4.6-10.8-7c-3.8-2.4-7.7-4.8-11.8-7.2c-4-2.4-8.1-4.9-12.2-7.4c-8.1-5-16.3-10-23.9-14.6c-3.8-2.3-7.5-4.6-11-6.7
		c-3.5-2.1-6.8-4.1-9.9-6c-12.3-7.4-20.4-12.4-20.4-12.4l-0.2,0.3c0,0,8,5.3,19.9,13.2c3,2,6.2,4.1,9.6,6.4c3.4,2.3,7,4.6,10.8,7.1
		c7.5,4.9,15.5,10.2,23.4,15.4c4,2.6,8,5.3,11.9,7.9c3.9,2.6,7.8,5.1,11.5,7.6c3.8,2.4,7.5,4.7,11,6.8c1.8,1.1,3.5,2.1,5.1,3.1
		c1.7,1,3.3,1.9,4.8,2.8c3.1,1.8,5.9,3.4,8.5,4.9c2.5,1.4,4.8,2.7,6.6,3.6c1.8,1,3.3,1.8,4.3,2.3c1,0.5,1.5,0.8,1.5,0.8l0.2-0.3
		c0,0-0.5-0.4-1.4-1C625,428.4,623.7,427.4,622,426.2z"/>
	<path fill="#F7931E" d="M638.2,396.7c-1.8-1-4.1-2.3-6.6-3.6c-2.6-1.4-5.5-2.9-8.7-4.5c-1.6-0.8-3.3-1.7-5-2.6
		c-1.7-0.9-3.5-1.8-5.3-2.7c-3.7-1.8-7.6-3.7-11.6-5.6c-4.1-1.9-8.3-3.8-12.6-5.7c-4.3-1.9-8.6-3.9-13-5.8
		c-8.7-3.9-17.4-7.9-25.6-11.5c-4.1-1.8-8-3.6-11.8-5.3c-3.7-1.7-7.3-3.2-10.6-4.7c-13.1-5.8-21.8-9.7-21.8-9.7l-0.2,0.4
		c0,0,8.6,4.2,21.4,10.6c3.2,1.6,6.7,3.3,10.4,5.1c3.7,1.8,7.6,3.7,11.6,5.7c8,3.9,16.6,8.1,25.2,12.3c4.3,2.1,8.6,4.2,12.8,6.3
		c4.2,2.1,8.4,4.1,12.4,6.1c4.1,1.9,8,3.7,11.7,5.4c1.9,0.8,3.7,1.6,5.5,2.4c1.8,0.8,3.5,1.5,5.1,2.2c3.3,1.4,6.3,2.7,9,3.8
		c2.7,1.1,5.1,2,7,2.8c2,0.8,3.5,1.4,4.5,1.7c1.1,0.4,1.6,0.6,1.6,0.6l0.2-0.4c0,0-0.5-0.3-1.5-0.9
		C641.4,398.5,640,397.7,638.2,396.7z"/>
	<path fill="#F7931E" d="M650.5,365.3c-1.9-0.8-4.3-1.7-7-2.8c-2.7-1-5.8-2.2-9.2-3.4c-1.7-0.6-3.4-1.3-5.3-1.9
		c-1.8-0.6-3.7-1.3-5.6-2c-3.9-1.4-8-2.7-12.2-4.1c-4.3-1.3-8.7-2.7-13.2-4.1c-4.5-1.4-9.1-2.8-13.6-4.1c-9.1-2.8-18.3-5.6-26.8-8.3
		c-4.3-1.3-8.4-2.6-12.3-3.8c-3.9-1.2-7.6-2.3-11.1-3.3c-13.7-4.1-22.9-6.9-22.9-6.9l-0.1,0.4c0,0,9,3.1,22.6,7.9
		c3.4,1.2,7,2.5,10.9,3.8c3.9,1.3,8,2.7,12.2,4.2c8.5,2.9,17.5,6,26.5,9.1c4.5,1.6,9,3.1,13.5,4.7c4.4,1.6,8.8,3,13.1,4.5
		c4.3,1.4,8.4,2.7,12.3,3.8c2,0.6,3.9,1.2,5.7,1.7c1.9,0.5,3.7,1,5.4,1.5c3.4,1,6.6,1.8,9.4,2.6c2.8,0.8,5.3,1.4,7.3,1.9
		c2,0.5,3.6,0.9,4.7,1.2c1.1,0.3,1.7,0.4,1.7,0.4l0.1-0.4c0,0-0.6-0.2-1.6-0.7C654,366.7,652.5,366.1,650.5,365.3z"/>
	<path fill="#F7931E" d="M658.9,332.6c-2-0.5-4.5-1.2-7.3-1.9c-2.8-0.7-6-1.5-9.5-2.3c-1.7-0.4-3.6-0.8-5.5-1.2
		c-1.9-0.4-3.8-0.8-5.8-1.3c-4-0.9-8.3-1.7-12.7-2.6c-4.4-0.8-9-1.6-13.6-2.4c-4.6-0.8-9.3-1.6-14.1-2.4c-9.4-1.6-18.8-3.3-27.6-4.8
		c-4.4-0.8-8.7-1.5-12.7-2.2c-4-0.7-7.9-1.3-11.4-1.9c-14.1-2.4-23.6-4-23.6-4l-0.1,0.4c0,0,9.3,2,23.4,5c3.5,0.7,7.3,1.6,11.3,2.4
		c4,0.8,8.3,1.7,12.6,2.6c8.8,1.8,18.1,3.8,27.5,5.7c4.7,1,9.3,2,13.9,2.9c4.6,1,9.1,1.9,13.5,2.8c4.4,0.8,8.7,1.6,12.7,2.3
		c2,0.3,4,0.7,5.9,1c1.9,0.3,3.8,0.6,5.5,0.9c3.5,0.6,6.8,1,9.7,1.4c2.9,0.4,5.4,0.7,7.5,1c2.1,0.2,3.7,0.5,4.8,0.6
		c1.1,0.1,1.7,0.2,1.7,0.2l0.1-0.4c0,0-0.6-0.2-1.7-0.5C662.5,333.6,660.9,333.2,658.9,332.6z"/>
	<path fill="#F7931E" d="M663,299.2c-2.1-0.3-4.6-0.6-7.5-0.9c-2.9-0.3-6.2-0.7-9.7-1c-1.8-0.2-3.6-0.4-5.6-0.5
		c-1.9-0.2-3.9-0.3-6-0.5c-4.1-0.4-8.4-0.7-12.9-1c-4.5-0.2-9.1-0.5-13.8-0.7c-4.7-0.2-9.5-0.4-14.2-0.6c-9.5-0.5-19.1-0.9-28-1.3
		c-4.5-0.2-8.8-0.4-12.9-0.6c-4.1-0.2-8-0.3-11.6-0.5c-14.3-0.6-23.9-1-23.9-1l0,0.4c0,0,9.5,0.8,23.8,2c3.6,0.3,7.4,0.6,11.5,1
		c4.1,0.3,8.4,0.7,12.9,1c8.9,0.7,18.5,1.5,28,2.2c4.8,0.4,9.5,0.8,14.2,1.2c4.7,0.4,9.3,0.7,13.8,1.1c4.5,0.3,8.8,0.5,12.9,0.7
		c2.1,0.1,4,0.2,6,0.2c1.9,0.1,3.8,0.1,5.6,0.2c3.6,0.1,6.9,0.1,9.8,0.2c2.9,0,5.5,0,7.6,0c2.1,0,3.7,0,4.9,0c1.1,0,1.7,0,1.7,0
		l0-0.4c0,0-0.6-0.1-1.7-0.3C666.7,299.7,665,299.5,663,299.2z"/>
	<path fill="#F7931E" d="M655.3,265.4c-2.9,0-6.2,0.1-9.8,0.2c-1.8,0.1-3.7,0.1-5.6,0.2c-1.9,0.1-3.9,0.2-6,0.2
		c-4.1,0.1-8.4,0.4-12.9,0.7c-4.5,0.3-9.1,0.7-13.8,1.1c-4.7,0.4-9.4,0.8-14.2,1.2c-9.5,0.8-19,1.5-28,2.2c-4.5,0.4-8.8,0.7-12.9,1
		c-4.1,0.3-8,0.7-11.5,1c-14.3,1.2-23.8,2-23.8,2l0,0.4c0,0,9.5-0.4,23.9-1c3.6-0.2,7.5-0.3,11.6-0.5c4.1-0.2,8.4-0.4,12.9-0.6
		c8.9-0.4,18.5-0.9,28-1.3c4.8-0.2,9.5-0.4,14.2-0.6c4.7-0.2,9.3-0.4,13.8-0.7c4.5-0.3,8.8-0.6,12.9-1c2-0.2,4-0.4,6-0.5
		c1.9-0.2,3.8-0.4,5.6-0.5c3.6-0.3,6.8-0.7,9.7-1c2.9-0.3,5.4-0.6,7.5-0.9c2.1-0.3,3.7-0.5,4.8-0.7c1.1-0.2,1.7-0.3,1.7-0.3l0-0.4
		c0,0-0.6,0-1.7,0c-1.1,0-2.8,0-4.9,0C660.8,265.4,658.2,265.4,655.3,265.4z"/>
	<path fill="#F7931E" d="M641.4,234.3c-1.8,0.3-3.6,0.6-5.5,0.9c-1.9,0.3-3.9,0.6-5.9,1c-4.1,0.7-8.3,1.4-12.7,2.3
		c-4.4,0.9-8.9,1.8-13.5,2.8c-4.6,1-9.3,2-13.9,2.9c-9.4,1.9-18.7,3.9-27.5,5.7c-4.4,0.9-8.6,1.8-12.6,2.6c-4,0.9-7.8,1.7-11.3,2.4
		c-14,3-23.4,5-23.4,5l0.1,0.4c0,0,9.4-1.6,23.6-4c3.5-0.6,7.4-1.2,11.4-1.9c4-0.7,8.3-1.4,12.7-2.2c8.8-1.5,18.2-3.2,27.6-4.8
		c4.7-0.8,9.4-1.6,14.1-2.4c4.6-0.8,9.2-1.6,13.6-2.4c4.4-0.8,8.6-1.7,12.7-2.6c2-0.4,4-0.9,5.8-1.3c1.9-0.4,3.7-0.8,5.5-1.2
		c3.5-0.8,6.7-1.6,9.5-2.3c2.8-0.7,5.3-1.3,7.3-1.9c2-0.5,3.6-0.9,4.7-1.3c1.1-0.3,1.7-0.5,1.7-0.5l-0.1-0.4c0,0-0.6,0.1-1.7,0.2
		c-1.1,0.1-2.7,0.3-4.8,0.6c-2.1,0.2-4.6,0.6-7.5,1C648.2,233.3,645,233.8,641.4,234.3z"/>
	<path fill="#F7931E" d="M633.4,203.9c-1.7,0.5-3.5,1-5.4,1.5c-1.9,0.6-3.8,1.1-5.7,1.7c-3.9,1.2-8.1,2.5-12.3,3.8
		c-4.2,1.4-8.6,2.9-13.1,4.5c-4.4,1.5-9,3.1-13.5,4.7c-9,3.1-18.1,6.2-26.5,9.1c-4.2,1.5-8.3,2.9-12.2,4.2
		c-3.9,1.4-7.5,2.6-10.9,3.8c-13.5,4.7-22.6,7.9-22.6,7.9l0.1,0.4c0,0,9.1-2.8,22.9-6.9c3.4-1,7.1-2.2,11.1-3.3
		c3.9-1.2,8.1-2.5,12.3-3.8c8.6-2.6,17.7-5.4,26.8-8.3c4.6-1.4,9.1-2.8,13.6-4.1c4.5-1.3,8.9-2.7,13.2-4.1c4.3-1.4,8.4-2.8,12.2-4.1
		c1.9-0.7,3.8-1.3,5.6-2c1.8-0.7,3.6-1.3,5.3-1.9c3.4-1.2,6.4-2.4,9.2-3.4c2.7-1,5.1-2,7-2.8c1.9-0.8,3.5-1.4,4.5-1.8
		c1-0.4,1.6-0.7,1.6-0.7l-0.1-0.4c0,0-0.6,0.1-1.7,0.4c-1.1,0.2-2.7,0.7-4.7,1.2c-2,0.5-4.5,1.1-7.3,1.9
		C640,202,636.8,202.9,633.4,203.9z"/>
	<path fill="#F7931E" d="M616.4,176.8c-1.8,0.8-3.6,1.6-5.5,2.4c-3.8,1.6-7.7,3.5-11.7,5.4c-4,2-8.2,4-12.4,6.1
		c-4.2,2.1-8.5,4.2-12.8,6.3c-8.6,4.2-17.1,8.4-25.2,12.3c-4,2-7.9,3.9-11.6,5.7c-3.7,1.8-7.2,3.5-10.4,5.1
		c-12.8,6.4-21.4,10.6-21.4,10.6l0.2,0.4c0,0,8.7-3.9,21.8-9.7c3.3-1.5,6.8-3,10.6-4.7c3.7-1.7,7.7-3.5,11.8-5.3
		c8.2-3.7,16.9-7.6,25.6-11.5c4.4-1.9,8.7-3.9,13-5.8c4.3-1.9,8.5-3.8,12.6-5.7c4-1.9,7.9-3.8,11.6-5.6c1.8-0.9,3.6-1.8,5.3-2.7
		c1.7-0.9,3.4-1.7,5-2.6c3.2-1.6,6.1-3.2,8.7-4.6c2.6-1.4,4.8-2.6,6.6-3.6c1.8-1,3.3-1.8,4.2-2.4c1-0.6,1.5-0.9,1.5-0.9l-0.2-0.4
		c0,0-0.6,0.2-1.6,0.6c-1.1,0.4-2.6,1-4.5,1.7c-2,0.7-4.3,1.7-7,2.8c-2.7,1.1-5.7,2.4-9,3.8C619.9,175.3,618.2,176.1,616.4,176.8z"
		/>
	<path fill="#F7931E" d="M601.3,150c-1.7,1-3.4,2-5.1,3.1c-3.5,2.1-7.2,4.4-11,6.8c-3.8,2.4-7.6,4.9-11.5,7.6
		c-3.9,2.6-7.9,5.2-11.9,7.9c-8,5.2-16,10.5-23.4,15.4c-3.7,2.5-7.4,4.8-10.8,7.1c-3.4,2.3-6.6,4.4-9.6,6.4
		c-11.9,7.9-19.9,13.2-19.9,13.2l0.2,0.3c0,0,8.2-4.9,20.4-12.4c3.1-1.9,6.4-3.9,9.9-6c3.5-2.1,7.2-4.4,11-6.7
		c7.6-4.7,15.8-9.7,23.9-14.6c4.1-2.5,8.2-5,12.2-7.4c4-2.4,8-4.9,11.8-7.2c3.8-2.4,7.4-4.7,10.8-7c1.7-1.1,3.4-2.2,5-3.3
		c1.6-1.1,3.1-2.1,4.6-3.2c3-2,5.6-3.9,8-5.6c2.4-1.7,4.4-3.2,6.1-4.4c1.7-1.2,3-2.2,3.9-2.9c0.9-0.7,1.4-1,1.4-1l-0.2-0.3
		c0,0-0.5,0.3-1.5,0.8c-1,0.5-2.4,1.3-4.3,2.3c-1.8,1-4.1,2.2-6.6,3.6c-2.5,1.4-5.4,3.1-8.5,4.9C604.6,148,603,149,601.3,150z"/>
	<path fill="#F7931E" d="M578.4,128.9c-3.2,2.5-6.6,5.3-10,8.1c-3.4,2.9-7,5.9-10.5,9c-3.6,3.1-7.2,6.2-10.8,9.3
		c-7.3,6.2-14.5,12.4-21.3,18.2c-3.4,2.9-6.7,5.7-9.8,8.4c-3.1,2.7-6,5.2-8.8,7.6c-10.8,9.4-18.1,15.6-18.1,15.6l0.3,0.3
		c0,0,7.5-5.9,18.7-14.8c2.8-2.2,5.8-4.6,9.1-7.2c3.2-2.6,6.6-5.3,10.1-8.1c7-5.6,14.4-11.6,21.9-17.5c3.7-3,7.5-5.9,11.2-8.9
		c3.7-2.9,7.3-5.8,10.8-8.6c3.4-2.9,6.8-5.6,9.8-8.3c1.5-1.3,3.1-2.7,4.5-3.9c1.4-1.3,2.8-2.5,4.2-3.7c2.7-2.4,5.1-4.6,7.3-6.6
		c2.1-2,4-3.7,5.5-5.2c1.5-1.4,2.7-2.6,3.5-3.4c0.8-0.8,1.2-1.2,1.2-1.2l-0.3-0.3c0,0-0.5,0.3-1.4,1c-0.9,0.6-2.3,1.6-4,2.8
		c-1.7,1.2-3.8,2.7-6.1,4.4c-2.3,1.7-5,3.7-7.8,5.9c-1.4,1.1-2.9,2.2-4.4,3.4C581.5,126.4,580,127.6,578.4,128.9z"/>
	<path fill="#F7931E" d="M539.3,126.5c-3.2,3.5-6.4,7-9.6,10.6c-6.4,7.1-12.9,14.1-18.9,20.8c-3,3.3-5.9,6.5-8.7,9.6
		c-2.7,3.1-5.3,5.9-7.7,8.6c-9.6,10.6-16,17.7-16,17.7l0.3,0.3c0,0,6.7-6.8,16.7-17.1c2.5-2.6,5.2-5.3,8.1-8.3c2.9-2.9,5.9-6,9-9.3
		c6.2-6.4,12.9-13.3,19.5-20.1c3.3-3.4,6.7-6.8,10-10.2c3.3-3.3,6.5-6.7,9.6-9.9c3.1-3.3,6-6.4,8.7-9.5c1.4-1.5,2.7-3,4-4.5
		c1.3-1.5,2.5-2.9,3.7-4.2c2.4-2.7,4.5-5.2,6.4-7.4c1.9-2.2,3.5-4.2,4.8-5.8c1.3-1.6,2.4-2.9,3.1-3.8c0.7-0.9,1.1-1.4,1.1-1.4
		l-0.3-0.3c0,0-0.4,0.4-1.3,1.1c-0.8,0.7-2,1.9-3.6,3.3c-1.5,1.4-3.4,3.2-5.5,5.2c-2.1,2-4.5,4.3-7,6.8c-1.3,1.3-2.6,2.6-4,3.9
		c-1.4,1.4-2.8,2.8-4.2,4.3c-2.9,2.9-5.9,6-8.9,9.3C545.6,119.6,542.5,123,539.3,126.5z"/>
	<path fill="#F7931E" d="M518.6,109.7c-2.7,3.9-5.4,7.8-8.2,11.7c-5.5,7.8-11,15.6-16.1,23c-2.6,3.7-5.1,7.2-7.4,10.6
		c-2.3,3.4-4.6,6.6-6.6,9.5c-8.2,11.8-13.6,19.6-13.6,19.6l0.3,0.2c0,0,5.8-7.6,14.4-19c2.2-2.9,4.5-5.9,7-9.2
		c2.5-3.3,5.1-6.7,7.8-10.3c5.4-7.2,11.1-14.8,16.8-22.4c2.9-3.8,5.8-7.6,8.6-11.4c2.9-3.7,5.6-7.5,8.3-11c2.6-3.6,5.1-7.1,7.5-10.5
		c1.2-1.7,2.3-3.3,3.4-4.9c1.1-1.6,2.1-3.1,3.1-4.6c2-3,3.8-5.7,5.4-8.2c1.6-2.4,3-4.6,4.1-6.4c1.1-1.8,2-3.2,2.6-4.1
		c0.6-1,0.9-1.5,0.9-1.5l-0.3-0.2c0,0-0.4,0.5-1.1,1.3c-0.7,0.8-1.8,2.1-3.1,3.7c-1.4,1.6-3,3.6-4.8,5.8c-1.8,2.3-3.9,4.8-6.1,7.7
		c-1.1,1.4-2.3,2.9-3.4,4.4c-1.2,1.5-2.4,3.1-3.6,4.8c-2.5,3.3-5.1,6.7-7.7,10.4C524,102,521.3,105.8,518.6,109.7z"/>
	<path fill="#F7931E" d="M489.3,108.2c-4.5,8.4-8.9,16.9-13.1,24.8c-2.1,4-4.1,7.8-6,11.4c-1.9,3.6-3.7,7.1-5.4,10.3
		c-6.6,12.7-11.1,21.2-11.1,21.2l0.3,0.2c0,0,4.8-8.3,11.9-20.7c1.8-3.1,3.7-6.5,5.8-10c2-3.6,4.2-7.3,6.4-11.2
		c4.4-7.8,9.2-16.1,13.9-24.4c2.4-4.1,4.8-8.3,7.1-12.4c2.4-4.1,4.6-8.1,6.8-12c2.2-3.9,4.2-7.7,6.1-11.4c0.9-1.8,1.9-3.6,2.8-5.3
		c0.9-1.7,1.7-3.4,2.5-5c1.6-3.2,3.1-6.2,4.3-8.8c1.3-2.6,2.4-4.9,3.2-6.8c0.9-1.9,1.6-3.4,2-4.4c0.5-1,0.7-1.6,0.7-1.6l-0.3-0.2
		c0,0-0.3,0.5-1,1.4c-0.6,0.9-1.5,2.3-2.6,4.1c-1.1,1.8-2.5,3.9-4,6.4c-1.5,2.5-3.3,5.3-5.1,8.4c-0.9,1.5-1.9,3.1-2.9,4.8
		c-1,1.7-2,3.4-3,5.2c-2.1,3.5-4.2,7.3-6.4,11.2c-2.1,3.9-4.3,8-6.5,12.2C493.8,99.7,491.5,103.9,489.3,108.2z"/>
	<path fill="#F7931E" d="M452.2,136.1c-1.4,3.8-2.8,7.5-4,10.8c-5,13.4-8.3,22.4-8.3,22.4l0.4,0.1c0,0,3.7-8.8,9.3-22
		c1.4-3.3,2.9-6.9,4.5-10.7c1.6-3.8,3.2-7.8,5-11.9c3.4-8.3,7.1-17.1,10.7-25.9c1.8-4.4,3.7-8.8,5.5-13.1c1.8-4.3,3.6-8.6,5.3-12.8
		c1.6-4.2,3.2-8.2,4.6-12.1c0.7-1.9,1.4-3.8,2.1-5.6c0.6-1.8,1.3-3.6,1.9-5.3c1.2-3.4,2.3-6.5,3.2-9.2c0.9-2.8,1.7-5.2,2.3-7.2
		c0.6-2,1.1-3.6,1.5-4.6c0.3-1.1,0.5-1.7,0.5-1.7l-0.4-0.1c0,0-0.3,0.5-0.8,1.5c-0.5,1-1.2,2.5-2.1,4.4c-0.9,1.9-2,4.2-3.2,6.8
		c-1.2,2.7-2.6,5.6-4,8.9c-0.7,1.6-1.5,3.4-2.2,5.1c-0.8,1.8-1.5,3.6-2.3,5.5c-1.6,3.8-3.2,7.8-4.9,11.9c-1.6,4.2-3.3,8.5-4.9,12.9
		c-1.6,4.4-3.3,8.9-5,13.3c-3.4,8.9-6.8,17.9-9.9,26.2C455.1,128.2,453.6,132.2,452.2,136.1z"/>
	<path fill="#F7931E" d="M425.6,164.6c0,0,2.6-9.2,6.4-23c1-3.5,2-7.2,3.1-11.1c1.1-4,2.2-8.1,3.4-12.4c2.4-8.6,4.9-17.9,7.4-27.1
		c1.3-4.6,2.6-9.2,3.8-13.7c1.3-4.5,2.5-9,3.6-13.3c1.1-4.3,2.2-8.5,3.1-12.5c0.5-2,0.9-3.9,1.3-5.8c0.4-1.9,0.8-3.7,1.2-5.5
		c0.8-3.5,1.4-6.7,2-9.6c0.6-2.9,1.1-5.4,1.4-7.4c0.4-2.1,0.7-3.7,0.9-4.8c0.2-1.1,0.3-1.7,0.3-1.7l-0.4-0.1c0,0-0.2,0.6-0.6,1.6
		c-0.4,1.1-0.9,2.6-1.5,4.6c-0.7,2-1.5,4.4-2.3,7.2c-0.9,2.8-1.8,5.9-2.8,9.4c-0.5,1.7-1,3.5-1.6,5.4c-0.5,1.9-1.1,3.8-1.6,5.8
		c-1.1,3.9-2.2,8.1-3.4,12.5c-1.1,4.3-2.2,8.8-3.2,13.4c-1.1,4.6-2.2,9.2-3.3,13.9c-2.2,9.3-4.5,18.6-6.5,27.3c-1,4.4-2,8.6-3,12.6
		c-0.9,4-1.8,7.8-2.6,11.3c-3.3,14-5.4,23.3-5.4,23.3L425.6,164.6z"/>
	<path fill="#F7931E" d="M410.5,161.8c0,0,1.4-9.5,3.5-23.6c0.5-3.5,1.1-7.4,1.7-11.4c0.6-4.1,1.2-8.3,1.8-12.8
		c1.3-8.9,2.6-18.3,4-27.8c0.7-4.7,1.4-9.5,2.1-14.1c0.7-4.6,1.3-9.2,1.9-13.7c0.6-4.4,1.1-8.7,1.5-12.8c0.2-2,0.4-4,0.6-5.9
		c0.2-1.9,0.3-3.8,0.5-5.6c0.3-3.6,0.6-6.8,0.8-9.8c0.2-2.9,0.4-5.4,0.5-7.5c0.1-2.1,0.2-3.7,0.3-4.9c0-1.1,0.1-1.7,0.1-1.7l-0.4,0
		c0,0-0.1,0.6-0.4,1.7c-0.2,1.1-0.5,2.7-1,4.8c-0.4,2.1-0.9,4.6-1.4,7.4c-0.5,2.9-1.1,6.1-1.7,9.6c-0.3,1.8-0.6,3.6-0.9,5.5
		c-0.3,1.9-0.6,3.9-0.9,5.9c-0.6,4.1-1.2,8.3-1.8,12.8c-0.5,4.4-1.1,9-1.5,13.7c-0.5,4.7-1,9.4-1.5,14.2c-1.1,9.5-2.1,19-3.1,27.9
		c-0.5,4.5-1,8.8-1.4,12.8c-0.4,4.1-0.8,7.9-1.2,11.5c-1.5,14.3-2.5,23.8-2.5,23.8L410.5,161.8z"/>
	<path fill="#F7931E" d="M392.9,84.4c0.1,9.6,0.3,19.1,0.4,28.1c0.1,4.5,0.1,8.8,0.2,12.9c0.1,4.1,0.2,8.1,0.2,11.7
		c0.3,14.3,0.5,24,0.5,24h0.4c0,0,0.2-9.6,0.5-24c0.1-3.6,0.2-7.5,0.2-11.6c0.1-4.1,0.1-8.5,0.2-12.9c0.1-9,0.3-18.5,0.4-28.1
		c0.1-4.8,0.2-9.6,0.3-14.3c0.1-4.7,0.2-9.3,0.2-13.8c0-4.5,0-8.8-0.1-12.9c0-2.1-0.1-4-0.1-6c-0.1-1.9-0.1-3.8-0.2-5.6
		c-0.1-3.6-0.3-6.9-0.4-9.8c-0.2-2.9-0.3-5.4-0.5-7.5c-0.2-2.1-0.2-3.7-0.4-4.8c-0.1-1.1-0.2-1.7-0.2-1.7h-0.4c0,0-0.1,0.6-0.2,1.7
		c-0.1,1.1-0.2,2.8-0.4,4.8c-0.2,2.1-0.3,4.6-0.5,7.5c-0.1,2.9-0.3,6.2-0.4,9.8c-0.1,1.8-0.1,3.7-0.2,5.6c0,1.9-0.1,3.9-0.1,6
		c-0.1,4.1-0.1,8.4-0.1,12.9c0.1,4.5,0.1,9.1,0.2,13.8C392.7,74.9,392.8,79.6,392.9,84.4z"/>
	<path fill="#F7931E" d="M360.6,16.8c0.1,2.1,0.3,4.6,0.5,7.5c0.2,2.9,0.5,6.2,0.8,9.8c0.2,1.8,0.3,3.6,0.5,5.6
		c0.2,1.9,0.4,3.9,0.6,5.9c0.4,4.1,0.9,8.4,1.5,12.8c0.6,4.4,1.2,9,1.9,13.7c0.7,4.7,1.4,9.4,2.1,14.1c1.3,9.5,2.7,18.9,4,27.8
		c0.6,4.4,1.3,8.7,1.8,12.8c0.6,4.1,1.2,7.9,1.7,11.4c2.1,14.2,3.5,23.6,3.5,23.6l0.4,0c0,0-1-9.5-2.5-23.8
		c-0.4-3.6-0.8-7.4-1.2-11.5c-0.4-4.1-0.9-8.4-1.4-12.8c-1-8.9-2-18.4-3.1-27.9c-0.5-4.7-1-9.5-1.5-14.2c-0.5-4.7-1-9.3-1.5-13.7
		c-0.6-4.4-1.1-8.7-1.8-12.8c-0.3-2-0.6-4-0.9-5.9c-0.3-1.9-0.6-3.7-0.9-5.5c-0.6-3.5-1.1-6.8-1.7-9.6c-0.5-2.9-1-5.4-1.4-7.4
		c-0.4-2.1-0.7-3.7-1-4.8c-0.2-1.1-0.4-1.7-0.4-1.7l-0.4,0c0,0,0,0.6,0.1,1.7C360.4,13,360.5,14.7,360.6,16.8z"/>
	<path fill="#F7931E" d="M327.6,23.1c0.4,2.1,0.8,4.6,1.4,7.4c0.6,2.9,1.2,6.1,2,9.6c0.4,1.7,0.8,3.6,1.2,5.5
		c0.4,1.9,0.9,3.8,1.3,5.8c0.9,4,2,8.2,3.1,12.5c1.2,4.3,2.3,8.8,3.6,13.3c1.3,4.5,2.5,9.1,3.8,13.7c2.5,9.2,5,18.4,7.4,27.1
		c1.2,4.3,2.3,8.5,3.4,12.4c1.1,4,2.1,7.7,3.1,11.1c3.9,13.8,6.4,23,6.4,23l0.4-0.1c0,0-2.2-9.3-5.4-23.3c-0.8-3.5-1.7-7.3-2.6-11.3
		c-1-4-2-8.2-3-12.6c-2.1-8.7-4.3-18-6.5-27.3c-1.1-4.6-2.2-9.3-3.3-13.9c-1-4.6-2.2-9.1-3.2-13.4c-1.1-4.3-2.2-8.5-3.4-12.5
		c-0.6-2-1.1-3.9-1.6-5.8c-0.5-1.9-1.1-3.6-1.6-5.4c-1-3.4-2-6.6-2.8-9.4c-0.9-2.8-1.7-5.2-2.3-7.2c-0.7-2-1.2-3.6-1.5-4.6
		c-0.4-1.1-0.6-1.6-0.6-1.6l-0.4,0.1c0,0,0.1,0.6,0.3,1.7C326.9,19.4,327.2,21.1,327.6,23.1z"/>
	<path fill="#F7931E" d="M295.5,33.7c0.6,2,1.4,4.4,2.3,7.2c0.9,2.8,2,5.9,3.2,9.2c0.6,1.7,1.2,3.4,1.9,5.3c0.7,1.8,1.4,3.7,2.1,5.6
		c1.4,3.9,3,7.9,4.6,12.1c1.7,4.1,3.4,8.4,5.3,12.8c1.8,4.3,3.7,8.7,5.5,13.1c3.7,8.8,7.3,17.6,10.7,25.9c1.7,4.1,3.4,8.1,5,11.9
		c1.6,3.8,3.1,7.4,4.5,10.7c5.6,13.2,9.3,22,9.3,22l0.4-0.1c0,0-3.3-8.9-8.3-22.4c-1.2-3.4-2.6-7-4-10.8c-1.4-3.8-3-7.9-4.5-12.1
		c-3.2-8.4-6.5-17.3-9.9-26.2c-1.7-4.5-3.3-8.9-5-13.3c-1.6-4.4-3.3-8.7-4.9-12.9c-1.7-4.2-3.3-8.2-4.9-11.9
		c-0.8-1.9-1.6-3.7-2.3-5.5c-0.8-1.8-1.5-3.5-2.2-5.1c-1.4-3.3-2.8-6.3-4-8.9c-1.2-2.6-2.3-4.9-3.2-6.8c-0.9-1.9-1.6-3.4-2.1-4.4
		c-0.5-1-0.8-1.5-0.8-1.5l-0.4,0.1c0,0,0.2,0.6,0.5,1.7C294.4,30.1,294.9,31.7,295.5,33.7z"/>
	<path fill="#F7931E" d="M265,48.1c0.9,1.9,2,4.2,3.2,6.8c1.3,2.6,2.7,5.6,4.3,8.8c0.8,1.6,1.7,3.3,2.5,5c0.9,1.7,1.8,3.5,2.8,5.3
		c1.9,3.6,3.9,7.5,6.1,11.4c2.2,3.9,4.5,7.9,6.8,12c2.3,4.1,4.7,8.2,7.1,12.4c4.7,8.3,9.5,16.6,13.9,24.4c2.2,3.9,4.4,7.6,6.4,11.2
		c2.1,3.6,4,6.9,5.8,10c7.2,12.4,11.9,20.7,11.9,20.7l0.4-0.2c0,0-4.4-8.5-11.1-21.2c-1.7-3.2-3.5-6.6-5.4-10.3
		c-1.9-3.6-3.9-7.5-6-11.4c-4.2-7.9-8.7-16.4-13.1-24.8c-2.2-4.2-4.4-8.5-6.6-12.6c-2.2-4.2-4.4-8.2-6.5-12.2
		c-2.2-3.9-4.3-7.7-6.4-11.2c-1-1.8-2-3.5-3-5.2c-1-1.7-1.9-3.3-2.9-4.8c-1.8-3.1-3.6-5.9-5.1-8.4c-1.5-2.5-2.9-4.6-4-6.4
		c-1.1-1.8-2-3.2-2.6-4.1c-0.6-0.9-1-1.4-1-1.4l-0.4,0.2c0,0,0.2,0.5,0.7,1.6C263.4,44.7,264.1,46.2,265,48.1z"/>
	<path fill="#F7931E" d="M236.6,66.2c1.1,1.8,2.5,3.9,4.1,6.4c1.6,2.4,3.4,5.2,5.4,8.2c1,1.5,2,3,3.1,4.6c1.1,1.6,2.2,3.2,3.4,4.9
		c2.3,3.4,4.8,6.9,7.5,10.5c2.7,3.6,5.4,7.3,8.3,11c2.8,3.8,5.7,7.6,8.6,11.4c5.7,7.6,11.5,15.3,16.8,22.4c2.7,3.6,5.3,7,7.8,10.3
		c2.5,3.3,4.8,6.4,7,9.2c8.7,11.4,14.4,19,14.4,19l0.3-0.2c0,0-5.5-7.8-13.6-19.6c-2-2.9-4.3-6.1-6.6-9.5c-2.4-3.4-4.8-6.9-7.4-10.6
		c-5.1-7.3-10.6-15.1-16.1-23c-2.7-3.9-5.5-7.8-8.2-11.7c-2.7-3.9-5.4-7.6-7.9-11.3c-2.6-3.6-5.2-7.1-7.7-10.4
		c-1.2-1.6-2.5-3.2-3.6-4.8c-1.2-1.5-2.3-3-3.4-4.4c-2.2-2.8-4.3-5.4-6.1-7.7c-1.8-2.3-3.5-4.2-4.8-5.8c-1.4-1.6-2.4-2.9-3.1-3.7
		c-0.7-0.8-1.1-1.3-1.1-1.3l-0.3,0.2c0,0,0.3,0.5,0.9,1.5C234.6,63.1,235.5,64.4,236.6,66.2z"/>
	<path fill="#F7931E" d="M210.7,87.8c1.3,1.6,2.9,3.6,4.8,5.8c1.9,2.2,4,4.7,6.4,7.4c1.2,1.3,2.4,2.8,3.7,4.2c1.3,1.4,2.6,2.9,4,4.5
		c2.7,3.1,5.7,6.2,8.7,9.5c3.1,3.2,6.3,6.6,9.6,9.9c3.3,3.4,6.6,6.8,10,10.2c6.6,6.9,13.3,13.7,19.5,20.1c3.1,3.2,6.1,6.3,9,9.3
		c2.9,2.9,5.6,5.7,8.1,8.3c10,10.2,16.7,17.1,16.7,17.1l0.3-0.3c0,0-6.4-7.1-16-17.7c-2.4-2.7-5-5.5-7.7-8.6c-2.8-3-5.7-6.2-8.7-9.6
		c-6-6.6-12.5-13.7-18.9-20.8c-3.2-3.5-6.4-7.1-9.6-10.6c-3.1-3.5-6.3-6.9-9.3-10.2c-3.1-3.3-6.1-6.4-8.9-9.3
		c-1.4-1.5-2.8-2.9-4.2-4.3c-1.4-1.4-2.7-2.7-4-3.9c-2.5-2.5-4.9-4.8-7-6.8c-2.1-2-4-3.8-5.5-5.2c-1.5-1.4-2.7-2.5-3.6-3.3
		c-0.8-0.7-1.3-1.1-1.3-1.1l-0.3,0.3c0,0,0.4,0.5,1.1,1.4C208.3,84.9,209.4,86.2,210.7,87.8z"/>
	<path fill="#F7931E" d="M187.7,112.5c1.5,1.5,3.4,3.2,5.5,5.2c2.1,2,4.6,4.2,7.3,6.6c1.3,1.2,2.7,2.4,4.2,3.7
		c1.5,1.3,3,2.6,4.5,3.9c3.1,2.7,6.4,5.5,9.8,8.3c3.5,2.8,7.1,5.7,10.8,8.6c3.7,2.9,7.4,5.9,11.2,8.9c7.5,6,14.9,11.9,21.9,17.5
		c3.5,2.8,6.9,5.5,10.1,8.1c3.2,2.5,6.3,5,9.1,7.2c11.2,8.9,18.7,14.8,18.7,14.8l0.3-0.3c0,0-7.2-6.2-18.1-15.6
		c-2.7-2.3-5.6-4.9-8.8-7.6c-3.1-2.7-6.4-5.5-9.8-8.4c-6.8-5.8-14.1-12-21.3-18.2c-3.6-3.1-7.2-6.2-10.8-9.3
		c-3.5-3.1-7.1-6.1-10.5-9c-3.5-2.8-6.8-5.6-10-8.1c-1.6-1.3-3.2-2.5-4.7-3.7c-1.5-1.2-3-2.3-4.4-3.4c-2.8-2.2-5.5-4.2-7.8-5.9
		c-2.3-1.7-4.4-3.2-6.1-4.4c-1.7-1.2-3-2.2-4-2.8c-0.9-0.6-1.4-1-1.4-1l-0.3,0.3c0,0,0.4,0.4,1.2,1.2
		C185,109.9,186.2,111,187.7,112.5z"/>
	<path fill="#F7931E" d="M168,139.8c1.7,1.3,3.7,2.7,6.1,4.4c2.4,1.7,5.1,3.6,8,5.6c1.5,1,3,2.1,4.6,3.2c1.6,1.1,3.3,2.2,5,3.3
		c3.4,2.3,7,4.6,10.8,7c3.8,2.4,7.7,4.8,11.8,7.2c4,2.4,8.1,4.9,12.2,7.4c8.1,5,16.3,10,23.9,14.6c3.8,2.3,7.5,4.6,11,6.7
		c3.5,2.1,6.8,4.1,9.9,6c12.3,7.4,20.4,12.4,20.4,12.4l0.2-0.3c0,0-8-5.3-19.9-13.2c-3-2-6.2-4.1-9.6-6.4c-3.4-2.3-7-4.6-10.8-7.1
		c-7.5-4.9-15.5-10.2-23.4-15.4c-4-2.6-8-5.3-11.9-7.9c-3.9-2.6-7.8-5.1-11.5-7.6c-3.8-2.4-7.5-4.7-11-6.8c-1.8-1.1-3.5-2.1-5.1-3.1
		c-1.7-1-3.3-1.9-4.8-2.8c-3.1-1.8-5.9-3.4-8.5-4.9c-2.5-1.4-4.8-2.7-6.6-3.6c-1.8-1-3.3-1.8-4.3-2.3c-1-0.5-1.5-0.8-1.5-0.8
		l-0.2,0.3c0,0,0.5,0.4,1.4,1C165,137.6,166.3,138.6,168,139.8z"/>
	<path fill="#F7931E" d="M151.8,169.3c1.8,1,4.1,2.3,6.6,3.6c2.6,1.4,5.5,2.9,8.7,4.6c1.6,0.8,3.3,1.7,5,2.6
		c1.7,0.9,3.5,1.8,5.3,2.7c3.7,1.8,7.6,3.7,11.6,5.6c4.1,1.9,8.3,3.8,12.6,5.7c4.3,1.9,8.6,3.9,13,5.8c8.7,3.9,17.4,7.9,25.6,11.5
		c4.1,1.8,8,3.6,11.8,5.3c3.7,1.7,7.3,3.2,10.6,4.7c13.1,5.8,21.8,9.7,21.8,9.7l0.2-0.4c0,0-8.6-4.2-21.4-10.6
		c-3.2-1.6-6.7-3.3-10.4-5.1c-3.7-1.8-7.6-3.7-11.6-5.7c-8-3.9-16.6-8.1-25.2-12.3c-4.3-2.1-8.6-4.2-12.8-6.3
		c-4.2-2.1-8.4-4.1-12.4-6.1c-4.1-1.9-8-3.7-11.7-5.4c-1.9-0.8-3.7-1.6-5.5-2.4c-1.8-0.8-3.5-1.5-5.1-2.2c-3.3-1.4-6.3-2.7-9-3.8
		c-2.7-1.1-5.1-2-7-2.8c-2-0.8-3.5-1.4-4.5-1.7c-1.1-0.4-1.6-0.6-1.6-0.6l-0.2,0.4c0,0,0.5,0.3,1.5,0.9
		C148.6,167.5,150,168.3,151.8,169.3z"/>
	<path fill="#F7931E" d="M139.5,200.7c1.9,0.8,4.3,1.7,7,2.8c2.7,1,5.8,2.2,9.2,3.4c1.7,0.6,3.4,1.2,5.3,1.9c1.8,0.6,3.7,1.3,5.6,2
		c3.9,1.4,8,2.7,12.2,4.1c4.3,1.3,8.7,2.7,13.2,4.1c4.5,1.4,9.1,2.8,13.6,4.1c9.1,2.8,18.3,5.6,26.8,8.3c4.3,1.3,8.4,2.6,12.3,3.8
		c3.9,1.2,7.6,2.3,11.1,3.3c13.7,4.1,22.9,6.9,22.9,6.9l0.1-0.4c0,0-9-3.1-22.6-7.9c-3.4-1.2-7-2.5-10.9-3.8
		c-3.9-1.3-8-2.7-12.2-4.2c-8.5-2.9-17.5-6-26.5-9.1c-4.5-1.6-9-3.1-13.5-4.7c-4.4-1.6-8.8-3-13.1-4.5c-4.3-1.4-8.4-2.7-12.3-3.8
		c-2-0.6-3.9-1.2-5.7-1.7c-1.9-0.5-3.7-1-5.4-1.5c-3.4-1-6.6-1.8-9.4-2.6c-2.8-0.8-5.3-1.4-7.3-1.9c-2-0.5-3.6-0.9-4.7-1.2
		c-1.1-0.3-1.7-0.4-1.7-0.4l-0.1,0.4c0,0,0.6,0.2,1.6,0.7C136,199.3,137.5,199.9,139.5,200.7z"/>
	<path fill="#F7931E" d="M131.1,233.4c2,0.5,4.5,1.2,7.3,1.9c2.8,0.7,6,1.5,9.5,2.3c1.7,0.4,3.6,0.8,5.5,1.2
		c1.9,0.4,3.8,0.8,5.8,1.3c4,0.9,8.3,1.7,12.7,2.6c4.4,0.8,9,1.6,13.6,2.4c4.6,0.8,9.3,1.6,14.1,2.4c9.4,1.6,18.8,3.3,27.6,4.8
		c4.4,0.8,8.7,1.5,12.7,2.2c4,0.7,7.9,1.3,11.4,1.9c14.1,2.4,23.5,4,23.5,4l0.1-0.4c0,0-9.3-2-23.4-5c-3.5-0.7-7.3-1.6-11.3-2.4
		c-4-0.8-8.3-1.7-12.6-2.6c-8.8-1.8-18.1-3.8-27.5-5.7c-4.7-1-9.3-2-13.9-2.9c-4.6-1-9.1-1.9-13.5-2.8c-4.4-0.8-8.7-1.6-12.7-2.3
		c-2-0.3-4-0.7-5.9-1c-1.9-0.3-3.8-0.6-5.5-0.9c-3.5-0.6-6.8-1-9.7-1.4c-2.9-0.4-5.4-0.7-7.5-1c-2.1-0.2-3.7-0.5-4.8-0.6
		c-1.1-0.1-1.7-0.2-1.7-0.2l-0.1,0.4c0,0,0.6,0.2,1.7,0.5C127.5,232.4,129.1,232.8,131.1,233.4z"/>
	<path fill="#F7931E" d="M127,266.8c2.1,0.3,4.6,0.6,7.5,0.9c2.9,0.3,6.2,0.7,9.7,1c1.8,0.2,3.6,0.4,5.6,0.5c1.9,0.2,3.9,0.3,6,0.5
		c4.1,0.4,8.4,0.7,12.9,1c4.5,0.2,9.1,0.5,13.8,0.7c4.7,0.2,9.5,0.4,14.2,0.6c9.5,0.5,19.1,0.9,28,1.3c4.5,0.2,8.8,0.4,12.9,0.6
		c4.1,0.2,8,0.3,11.6,0.5c14.3,0.6,23.9,1,23.9,1l0-0.4c0,0-9.5-0.8-23.8-2c-3.6-0.3-7.4-0.6-11.5-1c-4.1-0.3-8.4-0.7-12.9-1
		c-8.9-0.7-18.4-1.5-28-2.2c-4.8-0.4-9.5-0.8-14.2-1.2c-4.7-0.4-9.3-0.7-13.8-1.1c-4.5-0.3-8.8-0.5-12.9-0.7c-2.1-0.1-4-0.2-6-0.2
		c-1.9-0.1-3.8-0.1-5.6-0.2c-3.6-0.1-6.9-0.1-9.8-0.2c-2.9,0-5.5,0-7.6,0c-2.1,0-3.7,0-4.9,0c-1.1,0-1.7,0-1.7,0l0,0.4
		c0,0,0.6,0.1,1.7,0.3C123.3,266.3,125,266.5,127,266.8z"/>
	<path fill="#F7931E" d="M134.7,300.6c2.9,0,6.2-0.1,9.8-0.2c1.8-0.1,3.7-0.1,5.6-0.2c1.9-0.1,3.9-0.2,6-0.2
		c4.1-0.1,8.4-0.4,12.9-0.7c4.5-0.3,9.1-0.7,13.8-1.1c4.7-0.4,9.4-0.8,14.2-1.2c9.5-0.8,19-1.5,28-2.2c4.5-0.4,8.8-0.7,12.9-1
		c4.1-0.3,8-0.7,11.5-1c14.3-1.2,23.8-2,23.8-2l0-0.4c0,0-9.5,0.4-23.9,1c-3.6,0.2-7.5,0.3-11.6,0.5c-4.1,0.2-8.4,0.4-12.9,0.6
		c-8.9,0.4-18.5,0.9-28,1.3c-4.8,0.2-9.5,0.4-14.2,0.6c-4.7,0.2-9.3,0.4-13.8,0.7c-4.5,0.3-8.8,0.6-12.9,1c-2,0.2-4,0.4-6,0.5
		c-1.9,0.2-3.8,0.4-5.6,0.5c-3.6,0.3-6.8,0.7-9.7,1c-2.9,0.3-5.4,0.6-7.5,0.9c-2.1,0.3-3.7,0.5-4.8,0.7c-1.1,0.2-1.7,0.3-1.7,0.3
		l0,0.4c0,0,0.6,0,1.7,0c1.1,0,2.8,0,4.9,0C129.2,300.6,131.8,300.6,134.7,300.6z"/>
	<path fill="#F7931E" d="M148.6,331.7c1.8-0.3,3.6-0.6,5.5-0.9c1.9-0.3,3.9-0.6,5.9-1c4.1-0.7,8.3-1.4,12.7-2.3
		c4.4-0.9,8.9-1.8,13.5-2.8c4.6-1,9.3-2,13.9-2.9c9.4-1.9,18.7-3.9,27.5-5.7c4.4-0.9,8.6-1.8,12.6-2.6c4-0.9,7.8-1.7,11.3-2.4
		c14-3,23.4-5,23.4-5l-0.1-0.4c0,0-9.4,1.6-23.5,4c-3.5,0.6-7.4,1.2-11.4,1.9c-4,0.7-8.3,1.4-12.7,2.2c-8.8,1.5-18.2,3.2-27.6,4.8
		c-4.7,0.8-9.4,1.6-14.1,2.4c-4.6,0.8-9.2,1.6-13.6,2.4c-4.4,0.8-8.6,1.7-12.7,2.6c-2,0.4-4,0.9-5.8,1.3c-1.9,0.4-3.7,0.8-5.5,1.2
		c-3.5,0.8-6.7,1.6-9.5,2.3c-2.8,0.7-5.3,1.3-7.3,1.9c-2,0.5-3.6,0.9-4.7,1.3c-1.1,0.3-1.7,0.5-1.7,0.5l0.1,0.4c0,0,0.6-0.1,1.7-0.2
		c1.1-0.1,2.8-0.3,4.8-0.6c2.1-0.2,4.6-0.6,7.5-1C141.8,332.7,145,332.2,148.6,331.7z"/>
	<path fill="#F7931E" d="M156.6,362.1c1.7-0.5,3.5-1,5.4-1.5c1.9-0.6,3.8-1.1,5.7-1.7c3.9-1.2,8.1-2.5,12.3-3.8
		c4.2-1.4,8.6-2.9,13.1-4.5c4.4-1.5,9-3.1,13.5-4.7c9-3.1,18.1-6.2,26.5-9.1c4.2-1.5,8.3-2.9,12.2-4.2c3.9-1.3,7.5-2.6,10.9-3.8
		c13.5-4.7,22.6-7.9,22.6-7.9l-0.1-0.4c0,0-9.1,2.8-22.9,6.9c-3.4,1-7.1,2.2-11.1,3.3c-3.9,1.2-8.1,2.5-12.3,3.8
		c-8.6,2.6-17.7,5.4-26.8,8.3c-4.6,1.4-9.1,2.8-13.6,4.1c-4.5,1.3-8.9,2.7-13.2,4.1c-4.3,1.4-8.4,2.8-12.2,4.1
		c-1.9,0.7-3.8,1.3-5.6,2c-1.8,0.7-3.6,1.3-5.3,1.9c-3.4,1.2-6.4,2.4-9.2,3.4c-2.7,1-5.1,2-7,2.8c-1.9,0.8-3.5,1.4-4.5,1.8
		c-1,0.4-1.6,0.7-1.6,0.7l0.1,0.4c0,0,0.6-0.1,1.7-0.4c1.1-0.2,2.7-0.7,4.7-1.2c2-0.5,4.5-1.1,7.3-1.9
		C150,364,153.2,363.1,156.6,362.1z"/>
	<path fill="#F7931E" d="M173.6,389.2c1.8-0.8,3.6-1.6,5.5-2.4c3.8-1.6,7.7-3.5,11.7-5.4c4-2,8.2-4,12.4-6.1
		c4.2-2.1,8.5-4.2,12.8-6.3c8.6-4.2,17.1-8.4,25.2-12.3c4-2,7.9-3.9,11.6-5.7c3.7-1.8,7.2-3.5,10.4-5.1
		c12.8-6.4,21.4-10.6,21.4-10.6l-0.2-0.4c0,0-8.7,3.9-21.8,9.7c-3.3,1.5-6.8,3-10.6,4.7c-3.7,1.7-7.7,3.5-11.8,5.3
		c-8.2,3.7-16.9,7.6-25.6,11.5c-4.4,1.9-8.7,3.9-13,5.8c-4.3,1.9-8.5,3.8-12.6,5.7c-4,1.9-7.9,3.8-11.6,5.6
		c-1.8,0.9-3.6,1.8-5.3,2.7c-1.7,0.9-3.4,1.7-5,2.6c-3.2,1.6-6.1,3.2-8.7,4.5c-2.6,1.4-4.8,2.6-6.6,3.6c-1.8,1-3.3,1.8-4.2,2.4
		c-1,0.6-1.5,0.9-1.5,0.9l0.2,0.4c0,0,0.6-0.2,1.6-0.6c1.1-0.4,2.6-1,4.5-1.7c2-0.7,4.3-1.7,7-2.8c2.7-1.1,5.7-2.4,9-3.8
		C170.1,390.7,171.8,389.9,173.6,389.2z"/>
	<path fill="#F7931E" d="M188.7,416c1.7-1,3.4-2,5.1-3.1c3.5-2.1,7.2-4.4,11-6.8c3.7-2.4,7.6-4.9,11.5-7.6c3.9-2.6,7.9-5.2,11.9-7.9
		c8-5.2,16-10.5,23.4-15.4c3.7-2.5,7.4-4.8,10.8-7.1c3.4-2.3,6.6-4.4,9.6-6.4c11.9-7.9,19.9-13.2,19.9-13.2l-0.2-0.3
		c0,0-8.2,4.9-20.4,12.4c-3.1,1.9-6.4,3.9-9.9,6c-3.5,2.1-7.2,4.4-11,6.7c-7.6,4.7-15.8,9.7-23.9,14.6c-4.1,2.5-8.2,5-12.2,7.4
		c-4,2.4-8,4.9-11.8,7.2c-3.8,2.4-7.4,4.7-10.8,7c-1.7,1.1-3.4,2.2-5,3.3c-1.6,1.1-3.1,2.1-4.6,3.2c-3,2-5.6,3.9-8,5.6
		c-2.4,1.7-4.4,3.2-6.1,4.4c-1.7,1.2-3,2.2-3.9,2.9c-0.9,0.7-1.4,1-1.4,1l0.2,0.3c0,0,0.5-0.3,1.5-0.8c1-0.5,2.4-1.3,4.3-2.3
		c1.8-1,4.1-2.2,6.6-3.6c2.5-1.4,5.4-3.1,8.5-4.9C185.4,418,187,417,188.7,416z"/>
	<path fill="#F7931E" d="M211.6,437.1c3.2-2.5,6.6-5.3,10-8.1c3.4-2.9,7-5.9,10.5-9c3.6-3.1,7.2-6.2,10.8-9.3
		c7.3-6.2,14.5-12.4,21.3-18.2c3.4-2.9,6.7-5.7,9.8-8.4c3.1-2.7,6-5.2,8.8-7.6c10.8-9.4,18.1-15.6,18.1-15.6l-0.3-0.3
		c0,0-7.5,5.9-18.7,14.8c-2.8,2.2-5.8,4.6-9.1,7.2c-3.2,2.6-6.6,5.3-10.1,8.1c-7,5.6-14.4,11.6-21.9,17.5c-3.7,3-7.5,5.9-11.2,8.9
		c-3.7,2.9-7.3,5.8-10.8,8.6c-3.4,2.9-6.8,5.6-9.8,8.3c-1.5,1.3-3.1,2.7-4.5,3.9c-1.4,1.3-2.8,2.5-4.2,3.7c-2.7,2.4-5.1,4.6-7.3,6.6
		c-2.1,2-4,3.7-5.5,5.2c-1.5,1.4-2.7,2.6-3.5,3.4c-0.8,0.8-1.2,1.2-1.2,1.2l0.3,0.3c0,0,0.5-0.3,1.4-1c0.9-0.6,2.3-1.6,4-2.8
		c1.7-1.2,3.8-2.7,6.1-4.4c2.3-1.7,5-3.7,7.8-5.9c1.4-1.1,2.9-2.2,4.4-3.4C208.5,439.6,210,438.4,211.6,437.1z"/>
	<path fill="#F7931E" d="M250.7,439.5c3.2-3.5,6.4-7,9.6-10.6c6.4-7.1,12.9-14.1,18.9-20.8c3-3.3,5.9-6.5,8.7-9.6
		c2.7-3.1,5.3-5.9,7.7-8.6c9.6-10.6,16-17.7,16-17.7l-0.3-0.3c0,0-6.7,6.8-16.7,17.1c-2.5,2.6-5.2,5.3-8.1,8.3c-2.9,2.9-5.9,6-9,9.3
		c-6.2,6.4-12.9,13.3-19.5,20.1c-3.3,3.4-6.7,6.8-10,10.2c-3.3,3.3-6.5,6.7-9.6,9.9c-3.1,3.3-6,6.4-8.7,9.5c-1.4,1.5-2.7,3-4,4.5
		c-1.3,1.5-2.5,2.9-3.7,4.2c-2.4,2.7-4.5,5.2-6.4,7.4c-1.9,2.2-3.5,4.2-4.8,5.8c-1.3,1.6-2.4,2.9-3.1,3.8c-0.7,0.9-1.1,1.4-1.1,1.4
		l0.3,0.3c0,0,0.4-0.4,1.3-1.1c0.8-0.7,2-1.9,3.6-3.3c1.5-1.4,3.4-3.2,5.5-5.2c2.1-2,4.5-4.3,7-6.8c1.3-1.3,2.6-2.6,4-3.9
		c1.4-1.4,2.8-2.8,4.2-4.3c2.9-2.9,5.9-6,8.9-9.3C244.4,446.4,247.5,443,250.7,439.5z"/>
	<path fill="#F7931E" d="M271.4,456.3c2.7-3.9,5.4-7.8,8.2-11.7c5.5-7.8,11-15.6,16.1-23c2.6-3.7,5.1-7.2,7.4-10.6
		c2.3-3.4,4.6-6.6,6.6-9.5c8.2-11.8,13.6-19.6,13.6-19.6l-0.3-0.2c0,0-5.8,7.6-14.4,19c-2.2,2.9-4.5,5.9-7,9.2
		c-2.5,3.3-5.1,6.7-7.8,10.3c-5.4,7.2-11.1,14.8-16.8,22.4c-2.9,3.8-5.8,7.6-8.6,11.4c-2.9,3.7-5.6,7.5-8.3,11
		c-2.6,3.6-5.1,7.1-7.5,10.5c-1.2,1.7-2.3,3.3-3.4,4.9c-1.1,1.6-2.1,3.1-3.1,4.6c-2,3-3.8,5.7-5.4,8.2c-1.6,2.4-3,4.6-4.1,6.4
		c-1.1,1.8-2,3.2-2.6,4.1c-0.6,1-0.9,1.5-0.9,1.5l0.3,0.2c0,0,0.4-0.5,1.1-1.3c0.7-0.8,1.8-2.1,3.1-3.7c1.4-1.6,3-3.6,4.8-5.8
		c1.8-2.3,3.9-4.8,6.1-7.7c1.1-1.4,2.3-2.9,3.4-4.4c1.2-1.5,2.4-3.1,3.6-4.8c2.5-3.3,5.1-6.7,7.7-10.4
		C266,464,268.7,460.2,271.4,456.3z"/>
	<path fill="#F7931E" d="M300.7,457.8c4.5-8.4,8.9-16.9,13.1-24.8c2.1-4,4.1-7.8,6-11.4c1.9-3.6,3.7-7.1,5.4-10.3
		c6.6-12.7,11.1-21.2,11.1-21.2l-0.4-0.2c0,0-4.8,8.3-11.9,20.7c-1.8,3.1-3.7,6.5-5.8,10c-2,3.6-4.2,7.3-6.4,11.2
		c-4.4,7.8-9.2,16.1-13.9,24.4c-2.4,4.1-4.8,8.3-7.1,12.4c-2.4,4.1-4.6,8.1-6.8,12c-2.2,3.9-4.2,7.7-6.1,11.4
		c-0.9,1.8-1.9,3.6-2.8,5.3c-0.9,1.7-1.7,3.4-2.5,5c-1.6,3.2-3.1,6.2-4.3,8.8c-1.3,2.6-2.4,4.9-3.2,6.8c-0.9,1.9-1.6,3.4-2,4.4
		c-0.5,1-0.7,1.6-0.7,1.6l0.4,0.2c0,0,0.3-0.5,1-1.4c0.6-0.9,1.5-2.3,2.6-4.1c1.1-1.8,2.5-3.9,4-6.4c1.5-2.5,3.3-5.3,5.1-8.4
		c0.9-1.5,1.9-3.1,2.9-4.8c1-1.7,2-3.4,3-5.2c2.1-3.5,4.2-7.3,6.4-11.2c2.1-3.9,4.3-8,6.5-12.2C296.3,466.3,298.5,462.1,300.7,457.8
		z"/>
	<path fill="#F7931E" d="M337.8,429.9c1.4-3.8,2.8-7.5,4-10.8c5-13.4,8.3-22.4,8.3-22.4l-0.4-0.1c0,0-3.7,8.8-9.3,22
		c-1.4,3.3-2.9,6.9-4.5,10.7c-1.6,3.8-3.2,7.8-5,11.9c-3.4,8.3-7.1,17.1-10.7,25.9c-1.8,4.4-3.7,8.8-5.5,13.1
		c-1.8,4.3-3.6,8.6-5.3,12.8c-1.6,4.2-3.2,8.2-4.6,12.1c-0.7,1.9-1.4,3.8-2.1,5.6c-0.6,1.8-1.3,3.6-1.9,5.3
		c-1.2,3.4-2.3,6.5-3.2,9.2c-0.9,2.8-1.7,5.2-2.3,7.2c-0.6,2-1.1,3.6-1.5,4.6c-0.3,1.1-0.5,1.7-0.5,1.7l0.4,0.1c0,0,0.3-0.5,0.8-1.5
		c0.5-1,1.2-2.5,2.1-4.4c0.9-1.9,2-4.2,3.2-6.8c1.2-2.7,2.6-5.6,4-8.9c0.7-1.6,1.5-3.4,2.2-5.1c0.8-1.8,1.5-3.6,2.3-5.5
		c1.6-3.8,3.2-7.8,4.9-11.9c1.6-4.2,3.3-8.5,4.9-12.9c1.6-4.4,3.3-8.9,5-13.3c3.4-8.9,6.8-17.9,9.9-26.2
		C334.9,437.8,336.4,433.8,337.8,429.9z"/>
	<path fill="#F7931E" d="M364.4,401.4c0,0-2.6,9.2-6.4,23c-1,3.5-2,7.2-3.1,11.1c-1.1,4-2.2,8.1-3.4,12.4
		c-2.4,8.6-4.9,17.9-7.4,27.1c-1.3,4.6-2.6,9.2-3.8,13.7c-1.3,4.5-2.5,9-3.6,13.3c-1.1,4.3-2.1,8.5-3.1,12.5c-0.5,2-0.9,3.9-1.3,5.8
		c-0.4,1.9-0.8,3.7-1.2,5.5c-0.8,3.5-1.4,6.7-2,9.6c-0.6,2.9-1.1,5.4-1.4,7.4c-0.4,2.1-0.7,3.7-0.9,4.8c-0.2,1.1-0.3,1.7-0.3,1.7
		l0.4,0.1c0,0,0.2-0.6,0.6-1.6c0.4-1.1,0.9-2.6,1.5-4.6c0.7-2,1.5-4.4,2.3-7.2c0.9-2.8,1.8-5.9,2.8-9.4c0.5-1.7,1-3.5,1.6-5.4
		c0.5-1.9,1.1-3.8,1.6-5.8c1.1-3.9,2.2-8.1,3.4-12.5c1.1-4.3,2.2-8.8,3.2-13.4c1.1-4.6,2.2-9.2,3.3-13.9c2.2-9.3,4.5-18.6,6.5-27.3
		c1-4.4,2-8.6,3-12.6c0.9-4,1.8-7.8,2.6-11.3c3.3-14,5.4-23.3,5.4-23.3L364.4,401.4z"/>
	<path fill="#F7931E" d="M379.5,404.2c0,0-1.4,9.5-3.5,23.6c-0.5,3.5-1.1,7.4-1.7,11.4c-0.6,4.1-1.2,8.3-1.8,12.8
		c-1.3,8.9-2.6,18.3-4,27.8c-0.7,4.7-1.4,9.5-2.1,14.1c-0.7,4.6-1.3,9.2-1.9,13.7c-0.6,4.4-1.1,8.7-1.5,12.8c-0.2,2-0.4,4-0.6,5.9
		c-0.2,1.9-0.3,3.8-0.5,5.6c-0.3,3.6-0.6,6.8-0.8,9.8c-0.2,2.9-0.4,5.4-0.5,7.5c-0.1,2.1-0.2,3.7-0.3,4.9c0,1.1-0.1,1.7-0.1,1.7
		l0.4,0.1c0,0,0.1-0.6,0.4-1.7c0.2-1.1,0.5-2.7,1-4.8c0.4-2.1,0.9-4.6,1.4-7.4c0.5-2.9,1.1-6.1,1.7-9.6c0.3-1.8,0.6-3.6,0.9-5.5
		c0.3-1.9,0.6-3.9,0.9-5.9c0.6-4.1,1.2-8.3,1.8-12.8c0.5-4.4,1.1-9,1.5-13.7c0.5-4.7,1-9.4,1.5-14.2c1-9.5,2.1-19,3.1-27.9
		c0.5-4.5,1-8.8,1.4-12.8c0.4-4.1,0.8-7.9,1.2-11.5c1.5-14.3,2.5-23.8,2.5-23.8L379.5,404.2z"/>
	<circle fill="#FFCC66" cx="395" cy="283" r="100"/>
<text x="30" y="580" font-size="12">www.ABC-COLOR.COM</text>
</svg>
